# xmcd
#
# Track frame offsets:
#	150
#	15535
#	35472
#	52880
#	67970
#	82702
#	98272
#	109582
#	117635
#	132122
#
# Disc length: 2069 seconds
#
# Revision: 0
# Processed by: cddbd v1.5.1PL0 Copyright (c) Steve Scherf et al.
# Submitted via: EasyCDDAExtractor 4.6.9.1
#
DISCID=6b08130a
DTITLE=Doug Sahm - Groover's Paradise
DYEAR=1974
DGENRE=Country
TTITLE0=Groover's Paradise
TTITLE1=Devil Heart
TTITLE2=Houston Chicks
TTITLE3=For The Sake Of Rock' N' Roll!
TTITLE4=Beautiful Texas Sunshine
TTITLE5=Just Groove Me
TTITLE6=Girls Today (Don't Like To Sleep Alone)
TTITLE7=La Cacahuata (Peanut)
TTITLE8=Her Dream Man Never Came
TTITLE9=Catch Me In The Morning
EXTD=
EXTT0=
EXTT1=
EXTT2=
EXTT3=
EXTT4=
EXTT5=
EXTT6=
EXTT7=
EXTT8=
EXTT9=
PLAYORDER=
